<svg width="13" height="13" viewBox="0 0 13 13" fill="none" xmlns="http://www.w3.org/2000/svg">
<path d="M5.25202 7.17599C5.21302 7.17599 4.35502 7.17599 3.96502 7.17599C3.75702 7.17599 3.69202 7.09799 3.69202 6.90299C3.69202 6.38299 3.69202 5.84999 3.69202 5.32999C3.69202 5.12199 3.77002 5.05699 3.96502 5.05699H5.25202C5.25202 5.01799 5.25202 4.26399 5.25202 3.91299C5.25202 3.39299 5.34302 2.89899 5.60302 2.44399C5.87602 1.97599 6.26602 1.66399 6.76002 1.48199C7.08502 1.36499 7.41002 1.31299 7.76102 1.31299H9.03502C9.21702 1.31299 9.29502 1.39099 9.29502 1.57299V3.05499C9.29502 3.23699 9.21702 3.31499 9.03502 3.31499C8.68402 3.31499 8.33302 3.31499 7.98202 3.32799C7.63102 3.32799 7.44902 3.49699 7.44902 3.86099C7.43602 4.25099 7.44902 4.62799 7.44902 5.03099H8.95702C9.16502 5.03099 9.24302 5.10899 9.24302 5.31699V6.88999C9.24302 7.09799 9.17802 7.16299 8.95702 7.16299C8.48902 7.16299 7.48802 7.16299 7.44902 7.16299V11.401C7.44902 11.622 7.38402 11.7 7.15002 11.7C6.60402 11.7 6.07102 11.7 5.52502 11.7C5.33002 11.7 5.25202 11.622 5.25202 11.427C5.25202 10.062 5.25202 7.21499 5.25202 7.17599V7.17599Z" fill="#323232"/>
</svg>
