<svg width="14" height="14" viewBox="0 0 14 14" fill="none" xmlns="http://www.w3.org/2000/svg">
<path d="M12.6 12.5999V8.49789C12.6 6.48189 12.166 4.94189 9.814 4.94189C8.68 4.94189 7.924 5.55789 7.616 6.14589H7.588V5.12389H5.362V12.5999H7.686V8.88989C7.686 7.90989 7.868 6.97189 9.072 6.97189C10.262 6.97189 10.276 8.07789 10.276 8.94589V12.5859H12.6V12.5999Z" fill="#323232"/>
<path d="M1.58203 5.12378H3.90603V12.5998H1.58203V5.12378Z" fill="#323232"/>
<path d="M2.74403 1.3999C2.00202 1.3999 1.40002 2.0019 1.40002 2.7439C1.40002 3.4859 2.00202 4.1019 2.74403 4.1019C3.48603 4.1019 4.08803 3.4859 4.08803 2.7439C4.08803 2.0019 3.48603 1.3999 2.74403 1.3999V1.3999Z" fill="#323232"/>
</svg>
